<svg width="15.000000" height="15.000000" viewBox="0 0 15 15" fill="none" xmlns="http://www.w3.org/2000/svg" xmlns:xlink="http://www.w3.org/1999/xlink">
	<desc>
			Created with Pixso.
	</desc>
	<defs/>
	<rect id="ant-design:calendar-outlined" width="15.000000" height="15.000000" fill="#FFFFFF" fill-opacity="0"/>
	<path id="Vector" d="M13.02 2.57L10.5 2.57L10.5 1.62C10.5 1.55 10.44 1.5 10.38 1.5L9.54 1.5C9.47 1.5 9.42 1.55 9.42 1.62L9.42 2.57L5.58 2.57L5.58 1.62C5.58 1.55 5.52 1.5 5.46 1.5L4.62 1.5C4.55 1.5 4.5 1.55 4.5 1.62L4.5 2.57L1.98 2.57C1.71 2.57 1.5 2.79 1.5 3.06L1.5 13.02C1.5 13.28 1.71 13.5 1.98 13.5L13.02 13.5C13.28 13.5 13.5 13.28 13.5 13.02L13.5 3.06C13.5 2.79 13.28 2.57 13.02 2.57ZM12.42 12.42L2.58 12.42L2.58 6.72L12.42 6.72L12.42 12.42ZM2.58 5.7L2.58 3.66L4.5 3.66L4.5 4.38C4.5 4.44 4.55 4.5 4.62 4.5L5.46 4.5C5.52 4.5 5.58 4.44 5.58 4.38L5.58 3.66L9.42 3.66L9.42 4.38C9.42 4.44 9.47 4.5 9.54 4.5L10.38 4.5C10.44 4.5 10.5 4.44 10.5 4.38L10.5 3.66L12.42 3.66L12.42 5.7L2.58 5.7Z" fill="#131313" fill-opacity="1.000000" fill-rule="nonzero"/>
</svg>
