<svg width="15.000000" height="15.000000" viewBox="0 0 15 15" fill="none" xmlns="http://www.w3.org/2000/svg" xmlns:xlink="http://www.w3.org/1999/xlink">
	<desc>
			Created with Pixso.
	</desc>
	<defs/>
	<rect id="ant-design:credit-card-outlined" width="15.000000" height="15.000000" fill="#FFFFFF" fill-opacity="0"/>
	<path id="Vector" d="M13.07 2.25L1.92 2.25C1.69 2.25 1.5 2.46 1.5 2.72L1.5 12.27C1.5 12.53 1.69 12.75 1.92 12.75L13.07 12.75C13.3 12.75 13.5 12.53 13.5 12.27L13.5 2.72C13.5 2.46 13.3 2.25 13.07 2.25ZM2.46 3.32L12.53 3.32L12.53 5.11L2.46 5.11L2.46 3.32ZM12.53 11.67L2.46 11.67L2.46 6.42L12.53 6.42L12.53 11.67ZM9.36 10.72L11.57 10.72C11.63 10.72 11.67 10.66 11.67 10.6L11.67 9.52C11.67 9.46 11.63 9.4 11.57 9.4L9.36 9.4C9.3 9.4 9.25 9.46 9.25 9.52L9.25 10.6C9.25 10.66 9.3 10.72 9.36 10.72Z" fill="#131313" fill-opacity="1.000000" fill-rule="nonzero"/>
</svg>
