<svg width="15.000000" height="13.000000" viewBox="0 0 15 13" fill="none" xmlns="http://www.w3.org/2000/svg" xmlns:xlink="http://www.w3.org/1999/xlink">
	<desc>
			Created with Pixso.
	</desc>
	<defs/>
	<path id="Vector" d="M14.65 -0.88L-0.66 -0.88C-0.75 -0.88 -0.82 -0.81 -0.82 -0.72L-0.82 0.53C-0.82 0.61 -0.75 0.68 -0.66 0.68L14.65 0.68C14.74 0.68 14.81 0.61 14.81 0.53L14.81 -0.72C14.81 -0.81 14.74 -0.88 14.65 -0.88ZM14.65 11.31L-0.66 11.31C-0.75 11.31 -0.82 11.38 -0.82 11.46L-0.82 12.71C-0.82 12.8 -0.75 12.87 -0.66 12.87L14.65 12.87C14.74 12.87 14.81 12.8 14.81 12.71L14.81 11.46C14.81 11.38 14.74 11.31 14.65 11.31ZM14.65 5.21L-0.66 5.21C-0.75 5.21 -0.82 5.28 -0.82 5.37L-0.82 6.62C-0.82 6.71 -0.75 6.78 -0.66 6.78L14.65 6.78C14.74 6.78 14.81 6.71 14.81 6.62L14.81 5.37C14.81 5.28 14.74 5.21 14.65 5.21Z" fill="#000000" fill-opacity="1.000000" fill-rule="nonzero"/>
</svg>
