<svg width="20.000000" height="20.000000" viewBox="0 0 20 20" fill="none" xmlns="http://www.w3.org/2000/svg" xmlns:xlink="http://www.w3.org/1999/xlink">
	<desc>
			Created with Pixso.
	</desc>
	<defs/>
	<rect id="ant-design:calendar-outlined" width="20.000000" height="20.000000" fill="#FFFFFF" fill-opacity="0"/>
	<path id="Vector" d="M17.36 3.43L14 3.43L14 2.15C14 2.07 13.92 2 13.84 2L12.72 2C12.63 2 12.56 2.07 12.56 2.15L12.56 3.43L7.43 3.43L7.43 2.15C7.43 2.07 7.36 2 7.28 2L6.16 2C6.07 2 6 2.07 6 2.15L6 3.43L2.64 3.43C2.28 3.43 2 3.72 2 4.08L2 17.36C2 17.71 2.28 18 2.64 18L17.36 18C17.71 18 18 17.71 18 17.36L18 4.08C18 3.72 17.71 3.43 17.36 3.43ZM16.56 16.56L3.43 16.56L3.43 8.95L16.56 8.95L16.56 16.56ZM3.43 7.6L3.43 4.87L6 4.87L6 5.84C6 5.92 6.07 6 6.16 6L7.28 6C7.36 6 7.43 5.92 7.43 5.84L7.43 4.87L12.56 4.87L12.56 5.84C12.56 5.92 12.63 6 12.72 6L13.84 6C13.92 6 14 5.92 14 5.84L14 4.87L16.56 4.87L16.56 7.6L3.43 7.6Z" fill="#767676" fill-opacity="1.000000" fill-rule="nonzero"/>
</svg>
