<svg width="9.000000" height="9.000000" viewBox="0 0 9 9" fill="none" xmlns="http://www.w3.org/2000/svg" xmlns:xlink="http://www.w3.org/1999/xlink">
	<desc>
			Created with Pixso.
	</desc>
	<defs/>
	<path id="Vector" d="M8.41 0.06L6.39 0.06L6.39 -0.71C6.39 -0.76 6.35 -0.8 6.3 -0.8L5.63 -0.8C5.57 -0.8 5.53 -0.76 5.53 -0.71L5.53 0.06L2.46 0.06L2.46 -0.71C2.46 -0.76 2.42 -0.8 2.36 -0.8L1.69 -0.8C1.64 -0.8 1.59 -0.76 1.59 -0.71L1.59 0.06L-0.42 0.06C-0.63 0.06 -0.81 0.23 -0.81 0.44L-0.81 8.41C-0.81 8.62 -0.63 8.8 -0.42 8.8L8.41 8.8C8.62 8.8 8.79 8.62 8.79 8.41L8.79 0.44C8.79 0.23 8.62 0.06 8.41 0.06ZM7.93 7.93L0.06 7.93L0.06 3.37L7.93 3.37L7.93 7.93ZM0.06 2.56L0.06 0.92L1.59 0.92L1.59 1.5C1.59 1.55 1.64 1.6 1.69 1.6L2.36 1.6C2.42 1.6 2.46 1.55 2.46 1.5L2.46 0.92L5.53 0.92L5.53 1.5C5.53 1.55 5.57 1.6 5.63 1.6L6.3 1.6C6.35 1.6 6.39 1.55 6.39 1.5L6.39 0.92L7.93 0.92L7.93 2.56L0.06 2.56Z" fill="#131313" fill-opacity="1.000000" fill-rule="nonzero"/>
</svg>
