<svg width="16" height="14" viewBox="0 0 16 14" fill="none" xmlns="http://www.w3.org/2000/svg">
<path d="M15.6502 0.119995H0.340176C0.250176 0.119995 0.180176 0.189995 0.180176 0.279995V1.53C0.180176 1.61 0.250176 1.68 0.340176 1.68H15.6502C15.7402 1.68 15.8102 1.61 15.8102 1.53V0.279995C15.8102 0.189995 15.7402 0.119995 15.6502 0.119995ZM15.6502 12.31H0.340176C0.250176 12.31 0.180176 12.38 0.180176 12.46V13.71C0.180176 13.8 0.250176 13.87 0.340176 13.87H15.6502C15.7402 13.87 15.8102 13.8 15.8102 13.71V12.46C15.8102 12.38 15.7402 12.31 15.6502 12.31ZM15.6502 6.21H0.340176C0.250176 6.21 0.180176 6.28 0.180176 6.37V7.62C0.180176 7.71 0.250176 7.78 0.340176 7.78H15.6502C15.7402 7.78 15.8102 7.71 15.8102 7.62V6.37C15.8102 6.28 15.7402 6.21 15.6502 6.21Z" fill="black"/>
</svg>
