<svg width="16" height="16" viewBox="0 0 16 16" fill="none" xmlns="http://www.w3.org/2000/svg">
<path d="M15.58 14.5L10.51 9.43C11.3 8.41 11.72 7.17 11.72 5.86C11.72 4.3 11.11 2.83 10 1.72C8.9 0.61 7.43 0 5.86 0C4.3 0 2.82 0.61 1.72 1.72C0.61 2.82 0 4.3 0 5.86C0 7.43 0.61 8.9 1.72 10C2.82 11.11 4.3 11.72 5.86 11.72C7.17 11.72 8.41 11.3 9.43 10.51L14.5 15.58C14.52 15.6 14.54 15.61 14.55 15.62C14.57 15.62 14.59 15.63 14.62 15.63C14.64 15.63 14.66 15.62 14.68 15.62C14.7 15.61 14.71 15.6 14.73 15.58L15.58 14.73C15.6 14.72 15.61 14.7 15.62 14.68C15.62 14.66 15.63 14.64 15.63 14.62C15.63 14.6 15.62 14.58 15.62 14.56C15.61 14.54 15.6 14.52 15.58 14.5ZM8.96 8.96C8.13 9.78 7.03 10.24 5.86 10.24C4.69 10.24 3.6 9.78 2.77 8.96C1.94 8.13 1.49 7.03 1.49 5.86C1.49 4.69 1.94 3.59 2.77 2.77C3.6 1.94 4.69 1.49 5.86 1.49C7.03 1.49 8.13 1.94 8.96 2.77C9.78 3.6 10.24 4.69 10.24 5.86C10.24 7.03 9.78 8.13 8.96 8.96Z" fill="black"/>
</svg>
