<svg width="9.000000" height="9.000000" viewBox="0 0 9 9" fill="none" xmlns="http://www.w3.org/2000/svg" xmlns:xlink="http://www.w3.org/1999/xlink">
	<desc>
			Created with Pixso.
	</desc>
	<defs/>
	<path id="Vector" d="M8.45 -0.21L-0.46 -0.21C-0.65 -0.21 -0.81 -0.03 -0.81 0.18L-0.81 7.81C-0.81 8.02 -0.65 8.2 -0.46 8.2L8.45 8.2C8.64 8.2 8.79 8.02 8.79 7.81L8.79 0.18C8.79 -0.03 8.64 -0.21 8.45 -0.21ZM-0.03 0.65L8.02 0.65L8.02 2.09L-0.03 2.09L-0.03 0.65ZM8.02 7.34L-0.03 7.34L-0.03 3.14L8.02 3.14L8.02 7.34ZM5.48 6.57L7.25 6.57C7.3 6.57 7.34 6.53 7.34 6.48L7.34 5.62C7.34 5.57 7.3 5.52 7.25 5.52L5.48 5.52C5.44 5.52 5.4 5.57 5.4 5.62L5.4 6.48C5.4 6.53 5.44 6.57 5.48 6.57Z" fill="#131313" fill-opacity="1.000000" fill-rule="nonzero"/>
</svg>
