<svg width="15.000000" height="15.000000" viewBox="0 0 15 15" fill="none" xmlns="http://www.w3.org/2000/svg" xmlns:xlink="http://www.w3.org/1999/xlink">
	<desc>
			Created with Pixso.
	</desc>
	<defs/>
	<path id="Vector" d="M14.76 13.68L9.69 8.61C10.48 7.59 10.9 6.35 10.9 5.04C10.9 3.48 10.29 2.01 9.18 0.9C8.08 -0.21 6.61 -0.82 5.04 -0.82C3.48 -0.82 2 -0.21 0.9 0.9C-0.21 2 -0.82 3.48 -0.82 5.04C-0.82 6.61 -0.21 8.08 0.9 9.18C2 10.29 3.48 10.9 5.04 10.9C6.35 10.9 7.59 10.48 8.61 9.69L13.68 14.76C13.7 14.78 13.72 14.79 13.73 14.8C13.75 14.8 13.77 14.81 13.8 14.81C13.82 14.81 13.84 14.8 13.86 14.8C13.88 14.79 13.89 14.78 13.91 14.76L14.76 13.91C14.78 13.9 14.79 13.88 14.8 13.86C14.8 13.84 14.81 13.82 14.81 13.8C14.81 13.78 14.8 13.76 14.8 13.74C14.79 13.72 14.78 13.7 14.76 13.68ZM8.14 8.14C7.31 8.96 6.21 9.42 5.04 9.42C3.87 9.42 2.78 8.96 1.95 8.14C1.12 7.31 0.67 6.21 0.67 5.04C0.67 3.87 1.12 2.77 1.95 1.95C2.78 1.12 3.87 0.67 5.04 0.67C6.21 0.67 7.31 1.12 8.14 1.95C8.96 2.78 9.42 3.87 9.42 5.04C9.42 6.21 8.96 7.31 8.14 8.14Z" fill="#000000" fill-opacity="1.000000" fill-rule="nonzero"/>
</svg>
