<svg width="35.000000" height="35.000000" viewBox="0 0 35 35" fill="none" xmlns="http://www.w3.org/2000/svg" xmlns:xlink="http://www.w3.org/1999/xlink">
	<desc>
			Created with Pixso.
	</desc>
	<defs/>
	<path id="Vector" d="M17.51 19.32L15.7 19.32L15.7 16.85L17.51 16.85C17.83 16.82 18.15 16.94 18.4 17.17C18.63 17.41 18.76 17.74 18.74 18.09C18.76 18.43 18.63 18.76 18.4 19C18.16 19.24 17.84 19.35 17.51 19.32ZM15.7 13.54L17.41 13.54C17.84 13.5 18.26 13.71 18.48 14.08C18.7 14.47 18.7 14.95 18.48 15.33C18.26 15.7 17.84 15.92 17.41 15.87L15.7 15.87L15.7 13.54ZM18.88 16.53L18.45 16.33L18.88 16.12C19.41 15.83 19.74 15.26 19.74 14.63C19.74 13.33 18.92 12.56 17.55 12.56L14.62 12.56L14.62 20.3L17.67 20.3C19.03 20.3 19.85 19.5 19.85 18.17C19.88 17.46 19.49 16.81 18.88 16.53ZM10.18 19.24L10.18 13.62L11.21 13.62L11.21 18.25L13.58 18.25L13.58 19.22L10.18 19.22L10.18 19.24ZM23.1 19.24C22.59 19.26 22.09 19.08 21.71 18.71C21.34 18.34 21.13 17.82 21.14 17.3L21.14 13.64L22.18 13.64L22.18 17.24C22.16 17.6 22.34 17.95 22.63 18.13C22.92 18.32 23.29 18.32 23.59 18.13C23.88 17.93 24.06 17.6 24.03 17.24L24.03 13.62L25.06 13.62L25.06 17.28C25.06 17.82 24.85 18.34 24.49 18.7C24.11 19.07 23.61 19.26 23.1 19.24ZM17.49 6.68C13.58 6.68 10.06 9.09 8.56 12.78C7.06 16.46 7.89 20.72 10.65 23.55C13.41 26.37 17.58 27.22 21.18 25.69C24.79 24.17 27.15 20.57 27.15 16.56C27.15 11.11 22.82 6.68 17.49 6.68ZM17.49 26.04C13.75 26.04 10.36 23.74 8.93 20.19C7.5 16.64 8.29 12.57 10.94 9.87C13.59 7.15 17.58 6.35 21.05 7.82C24.5 9.28 26.76 12.74 26.76 16.57C26.75 21.79 22.6 26.03 17.49 26.04ZM17.49 6.06C13.33 6.06 9.58 8.62 7.99 12.54C6.39 16.46 7.28 21 10.21 24C13.15 27.01 17.56 27.91 21.41 26.29C25.25 24.67 27.75 20.83 27.75 16.57C27.76 10.77 23.17 6.06 17.49 6.06ZM17.49 28.05C12.96 28.05 8.85 25.25 7.11 20.95C5.38 16.66 6.34 11.72 9.54 8.44C12.75 5.15 17.59 4.17 21.78 5.94C25.97 7.72 28.72 11.92 28.71 16.56C28.71 22.91 23.68 28.04 17.49 28.05ZM23.46 0.14C21.41 -0.35 18.91 0.57 18.91 0.57C18.46 0.73 17.99 0.82 17.51 0.82C17.02 0.83 16.54 0.76 16.08 0.59C16.08 0.59 13.57 -0.35 11.53 0.16C11.53 0.16 9.51 0.55 9.99 3.21C9.99 3.21 10.1 1.15 12.65 1.15C12.65 1.15 13.61 1.11 15.62 2.05C15.8 2.15 15.99 2.23 16.19 2.3C16.31 2.34 16.45 2.38 16.62 2.41L16.76 2.44C16.81 2.45 16.88 2.47 16.94 2.47C17.31 2.52 17.69 2.52 18.05 2.47L18.23 2.4L18.4 2.35L18.46 2.35C18.56 2.33 18.66 2.3 18.76 2.26C18.95 2.19 19.14 2.1 19.34 2.01C21.34 1.08 22.31 1.11 22.31 1.11C24.86 1.11 24.97 3.17 24.97 3.17C25.47 0.54 23.45 0.14 23.46 0.14ZM0.01 17.2C0.29 15.05 2.03 12.97 2.03 12.97C2.35 12.6 2.6 12.18 2.77 11.71C2.94 11.25 3.02 10.77 3.03 10.27C3.03 10.27 3.03 7.51 4.21 5.72C4.21 5.72 5.28 3.93 7.57 5.35C7.57 5.35 5.62 4.7 4.71 7.16C4.71 7.16 4.34 8.05 4.49 10.34C4.52 10.55 4.53 10.77 4.52 10.99C4.52 11.14 4.5 11.29 4.49 11.43C4.49 11.49 4.49 11.53 4.46 11.57L4.42 11.77C4.34 12.14 4.2 12.5 4.02 12.83C3.99 12.89 3.96 12.93 3.94 12.99L3.84 13.14C3.83 13.15 3.81 13.18 3.8 13.19C3.74 13.28 3.67 13.36 3.6 13.44C3.46 13.6 3.33 13.75 3.17 13.89C1.6 15.51 1.29 16.44 1.29 16.44C0.38 18.89 2.27 19.75 2.27 19.75C-0.32 19.26 0.01 17.2 0.01 17.2ZM34.99 17.21C34.71 15.06 32.95 12.99 32.95 12.99C32.65 12.61 32.4 12.2 32.23 11.72C32.05 11.27 31.97 10.78 31.97 10.28C31.97 10.28 31.97 7.52 30.79 5.72C30.79 5.72 29.72 3.93 27.42 5.35C27.42 5.35 29.39 4.7 30.29 7.16C30.29 7.16 30.66 8.06 30.51 10.35C30.48 10.56 30.47 10.78 30.47 11C30.47 11.14 30.47 11.29 30.51 11.45L30.51 11.59C30.51 11.63 30.54 11.71 30.55 11.78C30.63 12.15 30.77 12.51 30.95 12.85L31.04 13L31.13 13.15L31.18 13.21C31.23 13.29 31.3 13.39 31.37 13.46C31.51 13.61 31.65 13.76 31.8 13.9C33.38 15.49 33.69 16.44 33.69 16.44C34.6 18.9 32.7 19.76 32.7 19.76C35.34 19.26 34.98 17.18 34.98 17.18L34.99 17.21ZM2.88 26.46C4.34 28.05 6.99 28.67 6.99 28.67C7.93 28.91 8.77 29.48 9.35 30.27C9.35 30.27 10.94 32.51 12.94 33.26C12.94 33.26 14.86 34.08 15.93 31.54C15.93 31.54 14.68 33.26 12.53 31.79C12.53 31.79 11.69 31.28 10.51 29.33C10.42 29.13 10.29 28.95 10.17 28.77C10.08 28.65 9.99 28.54 9.88 28.43L9.78 28.33L9.64 28.2C9.36 27.94 9.04 27.73 8.71 27.57L8.56 27.5L8.39 27.43L8.32 27.4C8.22 27.36 8.13 27.33 8.03 27.32C7.82 27.26 7.61 27.23 7.39 27.22C5.2 26.87 4.39 26.29 4.39 26.29C2.23 24.82 3.3 22.99 3.3 22.99C1.41 24.97 2.9 26.46 2.88 26.46ZM32.08 26.46C30.62 28.05 27.98 28.67 27.98 28.67C27.04 28.91 26.19 29.46 25.61 30.27C25.61 30.27 24.03 32.51 22.03 33.26C22.03 33.26 20.12 34.08 19.05 31.54C19.05 31.54 20.3 33.26 22.45 31.79C22.45 31.79 23.28 31.28 24.45 29.33C24.54 29.13 24.67 28.95 24.79 28.77C24.88 28.66 24.97 28.54 25.08 28.43C25.11 28.38 25.15 28.36 25.18 28.33L25.32 28.2C25.6 27.95 25.92 27.73 26.26 27.57L26.42 27.5L26.58 27.43L26.65 27.4C26.83 27.33 26.94 27.32 26.94 27.32C27.15 27.26 27.37 27.23 27.58 27.21C29.77 26.86 30.58 26.28 30.58 26.28C32.73 24.81 31.68 22.98 31.68 22.98C33.56 24.97 32.08 26.46 32.08 26.46ZM17.62 35L18.53 28.86L17.62 28.86L16.7 28.86L17.62 35ZM34.73 22.17L29.3 19.24L29.01 20.18L28.72 21.12L34.73 22.17ZM0.24 22.17L5.67 19.24L5.96 20.18L6.25 21.12L0.24 22.17ZM28.19 1.33L25.29 6.94L24.52 6.36L23.74 5.78L28.19 1.33ZM6.78 1.33L9.68 6.94L10.46 6.36L11.24 5.78L6.78 1.33Z" fill="#131313" fill-opacity="1.000000" fill-rule="nonzero"/>
</svg>
